<svg xmlns="http://www.w3.org/2000/svg" viewBox="0 0 1280.000000 888.000000">
<g transform="translate(0.000000,888.000000) scale(0.100000,-0.100000)"
fill="white" stroke="none">
<path d="M4764 8869 c-3842 -6 -4287 -9 -4342 -23 -207 -53 -364 -222 -408
-440 -14 -66 -15 -507 -7 -4008 9 -3727 10 -3936 27 -3988 69 -214 230 -365
426 -401 50 -9 1426 -9 5965 -1 5264 10 5906 13 5958 26 205 55 359 224 403
440 14 66 15 507 7 4008 -9 3727 -10 3936 -27 3988 -67 208 -225 360 -414 399
-59 12 -596 12 -7588 0z m7568 -70 c170 -35 303 -164 364 -349 17 -52 18 -248
25 -3975 8 -4312 13 -3994 -53 -4125 -61 -121 -190 -223 -316 -249 -36 -7
-299 -11 -827 -11 l-774 0 -10 53 c-6 28 -26 144 -46 257 -177 1004 -356 1690
-458 1754 -91 56 -775 86 -2332 101 -946 9 -3305 -15 -4385 -45 -716 -20 -983
-37 -1024 -64 -59 -38 -133 -239 -241 -651 -53 -204 -189 -853 -258 -1235
l-34 -185 -714 -3 c-500 -2 -732 1 -774 8 -173 33 -309 161 -371 350 -17 52
-18 248 -25 3975 -7 3371 -6 3930 7 3990 39 196 193 354 374 385 47 8 1456 13
4990 19 2709 4 5353 8 5877 9 663 1 968 -1 1005 -9z m-3242 -6629 c593 -16
948 -36 1067 -62 51 -11 52 -11 81 -77 67 -150 159 -485 242 -880 90 -432 205
-1050 196 -1059 -4 -4 -8628 -20 -8637 -15 -7 3 31 214 112 623 159 801 312
1349 388 1390 66 35 1375 70 3546 94 528 6 2636 -4 3005 -14z"/>
<path d="M12251 8679 c-119 -22 -212 -155 -198 -281 25 -205 242 -309 390
-187 78 64 115 163 97 259 -28 147 -149 234 -289 209z m91 -89 c20 -6 50 -26
67 -45 100 -114 33 -295 -110 -295 -112 0 -192 134 -145 243 17 41 65 85 102
97 39 11 44 11 86 0z"/>
<path d="M12278 8493 l-3 -58 -45 -1 c-41 0 -45 -3 -45 -25 0 -21 5 -24 43
-27 l42 -3 0 -50 c0 -48 1 -49 30 -49 29 0 30 1 30 50 l0 50 45 0 c41 0 45 2
45 25 0 23 -4 25 -45 25 l-45 0 0 60 c0 57 -1 60 -25 60 -22 0 -24 -4 -27 -57z"/>
<path d="M472 8651 c-101 -35 -165 -127 -166 -241 -1 -89 23 -149 84 -203 78
-70 166 -85 255 -43 62 29 97 66 126 131 64 143 -11 317 -155 360 -63 19 -79
18 -144 -4z m131 -85 c68 -28 115 -114 103 -190 -15 -92 -88 -153 -174 -143
-56 6 -91 31 -119 87 -46 89 -16 193 67 237 50 26 77 29 123 9z"/>
<path d="M520 8475 l0 -55 -45 0 c-43 0 -45 -1 -45 -30 0 -29 2 -30 46 -30
l46 0 -3 -47 c-3 -46 -2 -48 24 -51 26 -3 27 -2 27 47 l0 51 50 0 c47 0 50 2
50 25 0 23 -3 25 -50 25 l-50 0 0 60 c0 57 -1 60 -25 60 -24 0 -25 -3 -25 -55z"/>
<path d="M3370 8130 l-2505 -5 -40 -21 c-25 -13 -51 -39 -70 -69 l-30 -48 3
-2626 3 -2626 28 -55 c20 -42 37 -61 71 -80 l45 -25 1965 3 c7952 9 9014 13
9057 28 50 18 98 69 114 123 9 29 10 679 7 2647 l-4 2609 -21 46 c-11 26 -37
59 -59 75 l-37 29 -3011 0 c-1656 0 -4138 -2 -5516 -5z m8482 -70 c23 -7 46
-23 60 -43 l23 -32 0 -2627 0 -2626 -24 -26 c-13 -14 -38 -28 -55 -31 -17 -3
-2488 -9 -5491 -14 -4734 -8 -5464 -7 -5490 5 -17 8 -38 27 -47 42 -15 25 -17
265 -23 2633 -7 2436 -7 2607 9 2641 10 20 31 43 49 52 29 15 440 17 5132 24
2805 5 5262 9 5460 10 222 1 374 -2 397 -8z"/>
<path d="M7205 7979 c-1919 -3 -4094 -7 -4832 -8 l-1343 -1 0 -725 0 -724
2653 5 c1458 2 3846 7 5305 10 l2652 6 0 724 0 724 -472 -2 c-260 -1 -2043 -5
-3963 -9z m4357 -713 l3 -644 -1620 -6 c-891 -3 -3243 -8 -5227 -11 l-3608 -5
0 645 0 645 823 1 c2032 4 7851 15 8694 17 l933 2 2 -644z"/>
<path d="M5765 7579 c-4504 -8 -4405 -8 -4405 -18 0 -9 6913 -5 7907 5 343 4
600 10 597 15 -3 5 -141 8 -307 7 -166 -1 -1872 -5 -3792 -9z"/>
<path d="M4360 7143 c-1969 -2 -2987 -6 -2994 -13 -7 -7 751 -10 2265 -10
3005 0 6239 11 6239 22 0 4 -568 7 -1262 6 -695 -2 -2606 -4 -4248 -5z"/>
<path d="M6155 6210 l-3340 -5 -56 -23 c-149 -60 -244 -167 -284 -317 -22 -87
-22 -1667 0 -1763 40 -167 162 -298 317 -339 58 -14 350 -15 3550 -9 2883 6
3496 10 3539 21 169 45 296 203 319 395 7 55 8 369 3 895 l-8 810 -42 86 c-31
64 -57 99 -98 137 -106 97 -200 123 -430 120 -71 -1 -1633 -5 -3470 -8z m-811
-591 c158 -148 241 -296 298 -529 22 -91 16 -347 -10 -447 -65 -250 -225 -476
-418 -593 -57 -34 -61 -35 -165 -35 -123 0 -151 11 -180 67 -18 36 -19 69 -19
781 l0 744 23 34 c36 54 55 59 228 59 l156 0 87 -81z m1871 29 c-264 -293
-351 -720 -229 -1111 54 -170 180 -370 300 -476 l47 -41 -972 -2 c-534 -2
-971 -3 -971 -3 0 0 35 36 78 80 171 175 274 388 308 635 17 131 17 178 0 310
-32 234 -135 458 -284 613 l-46 47 908 0 908 0 -47 -52z m511 36 c53 -35 51
-14 55 -819 4 -702 3 -752 -14 -782 -24 -45 -64 -63 -139 -63 -55 0 -72 5
-128 38 -35 20 -101 73 -146 118 -126 124 -204 256 -261 441 -24 80 -27 103
-27 263 -1 115 4 194 12 230 53 214 149 381 300 520 l76 70 123 0 c98 0 129
-3 149 -16z"/>
<path d="M11258 1441 c-80 -26 -136 -61 -200 -125 -186 -186 -210 -502 -54
-720 57 -80 112 -126 198 -166 92 -43 178 -56 270 -41 248 41 429 262 430 526
2 223 -108 408 -296 501 -75 37 -85 39 -185 41 -82 2 -119 -1 -163 -16z m314
-100 c111 -53 209 -177 237 -302 15 -65 13 -177 -4 -244 -69 -265 -345 -401
-579 -286 -73 36 -153 116 -192 192 -115 228 -29 524 186 634 69 36 113 45
201 41 71 -3 97 -9 151 -35z"/>
<path d="M11328 1193 c-240 -55 -306 -373 -107 -519 170 -124 405 -30 449 179
41 201 -144 386 -342 340z"/>
<path d="M1198 1434 c-120 -29 -234 -111 -304 -221 -110 -169 -116 -415 -15
-588 95 -162 252 -255 432 -255 276 0 500 242 499 538 0 151 -57 289 -161 393
-125 126 -286 174 -451 133z m237 -91 c206 -72 331 -308 284 -535 -52 -249
-290 -408 -515 -343 -288 82 -409 451 -233 714 104 156 294 224 464 164z"/>
<path d="M1224 1175 c-142 -35 -240 -190 -211 -337 40 -206 279 -303 447 -182
199 143 138 463 -99 520 -66 16 -70 16 -137 -1z"/>
<path d="M12261 734 c-48 -18 -110 -74 -138 -126 -13 -25 -18 -55 -18 -123 0
-102 11 -131 75 -195 161 -161 428 -16 407 221 -15 167 -177 277 -326 223z
m143 -88 c18 -8 46 -31 62 -52 26 -33 29 -46 29 -109 0 -63 -3 -76 -29 -109
-75 -99 -206 -83 -265 32 -17 32 -15 124 2 159 42 79 124 111 201 79z"/>
<path d="M12320 559 l0 -59 -50 0 c-46 0 -50 -2 -50 -24 0 -22 6 -26 45 -32
l45 -6 0 -49 c0 -48 1 -49 30 -49 29 0 30 1 30 50 l0 50 45 0 c44 0 45 1 45
31 0 31 -1 31 -45 27 l-45 -3 0 56 c0 52 -2 57 -25 61 -24 5 -25 4 -25 -53z"/>
<path d="M443 689 c-54 -10 -91 -30 -129 -71 -46 -48 -66 -94 -71 -163 -10
-116 39 -208 136 -257 175 -89 365 52 349 256 -6 70 -26 116 -72 164 -55 59
-132 85 -213 71z m122 -108 c97 -56 99 -233 2 -299 -45 -30 -119 -30 -163 0
-107 73 -98 248 16 306 50 25 93 23 145 -7z"/>
<path d="M458 503 l-3 -58 -45 0 c-42 0 -45 -2 -48 -27 -3 -27 -2 -28 42 -28
l46 0 0 -50 c0 -49 1 -50 30 -50 29 0 30 1 30 50 l0 50 45 0 c41 0 45 2 45 25
0 23 -4 25 -45 25 l-45 0 0 60 c0 57 -1 60 -25 60 -22 0 -24 -4 -27 -57z"/>
<path d="M8016 1115 c-231 -88 -290 -407 -108 -577 125 -117 298 -115 423 5
23 22 53 65 68 96 22 48 26 69 26 151 0 82 -4 103 -27 152 -31 66 -91 128
-156 160 -59 28 -169 35 -226 13z m222 -89 c174 -110 164 -386 -17 -479 -124
-62 -255 -15 -320 114 -70 141 -18 313 113 376 69 33 162 28 224 -11z"/>
<path d="M4473 1092 c-143 -51 -225 -168 -225 -320 0 -188 122 -330 294 -340
86 -5 152 16 213 70 61 54 92 104 111 181 52 202 -83 404 -281 422 -44 4 -74
1 -112 -13z m159 -64 c61 -18 133 -89 157 -154 84 -224 -110 -442 -319 -358
-51 21 -126 103 -142 157 -64 214 108 414 304 355z"/>
<path d="M9280 857 c-60 -21 -95 -44 -139 -92 -68 -74 -86 -123 -86 -235 0
-82 4 -103 26 -150 31 -65 96 -132 159 -163 65 -32 186 -31 252 1 65 32 125
94 156 160 23 49 27 70 27 152 0 82 -4 103 -26 151 -31 65 -91 126 -156 159
-54 27 -160 35 -213 17z m191 -84 c60 -31 112 -92 129 -151 16 -59 12 -162 -9
-207 -79 -173 -298 -208 -411 -66 -44 56 -59 102 -59 181 -1 109 52 200 141
244 71 35 137 35 209 -1z"/>
<path d="M3095 846 c-199 -62 -287 -307 -181 -501 98 -179 329 -219 475 -82
110 104 140 263 76 405 -65 145 -227 223 -370 178z m180 -75 c86 -39 145 -126
152 -226 10 -116 -42 -219 -136 -267 -249 -130 -474 208 -285 431 61 73 184
101 269 62z"/>
</g>
</svg>
